# xmcd
#
# Track frame offsets:
# 150
# 32684
# 59466
# 79773
# 95028
# 120655
# 150514
# 179213
# 214850
# 242847
# 278001
# 297904
#
# Disc length: 4439 seconds
#
# Revision: 0
# Processed by: cddbd v1.4PL0 Copyright (c) Steve Scherf et al.
# Submitted via: Audion 3.0.2 (http://www.panic.com/audion/)
#
DISCID=af11550c
DTITLE=James Patterson - 2nd Chance
DYEAR=1900
DGENRE=
TTITLE0=Intro
TTITLE1=Chapter 01
TTITLE2=Chapter 02
TTITLE3=Chapter 03
TTITLE4=Chapter 04
TTITLE5=Chapter 05
TTITLE6=Chapter 06
TTITLE7=Chapter 07
TTITLE8=Chapter 08
TTITLE9=Chapter 09
TTITLE10=Chapter 10
TTITLE11=Chapter 11
EXTD=
EXTT0=
EXTT1=
EXTT2=
EXTT3=
EXTT4=
EXTT5=
EXTT6=
EXTT7=
EXTT8=
EXTT9=
EXTT10=
EXTT11=
PLAYORDER=
